<svg xmlns="http://www.w3.org/2000/svg" viewBox="0 0 128 128" width="512" height="512">
  <defs>
    <radialGradient id="emberHalo" cx="50%" cy="54%" r="58%">
      <stop offset="0%" stop-color="#FFB56B" stop-opacity="0.55"/>
      <stop offset="42%" stop-color="#FF7A3D" stop-opacity="0.28"/>
      <stop offset="100%" stop-color="#FFFDF7" stop-opacity="0"/>
    </radialGradient>
    <linearGradient id="emberShell" x1="28" y1="10" x2="94" y2="114" gradientUnits="userSpaceOnUse">
      <stop offset="0%" stop-color="#FFD08D"/>
      <stop offset="33%" stop-color="#FF9B4D"/>
      <stop offset="74%" stop-color="#FF603C"/>
      <stop offset="100%" stop-color="#A63C36"/>
    </linearGradient>
    <linearGradient id="emberCore" x1="42" y1="28" x2="74" y2="95" gradientUnits="userSpaceOnUse">
      <stop offset="0%" stop-color="#FFF7D9"/>
      <stop offset="56%" stop-color="#FFD96E"/>
      <stop offset="100%" stop-color="#FF952E"/>
    </linearGradient>
    <filter id="shadow" x="-40%" y="-40%" width="180%" height="200%">
      <feDropShadow dx="0" dy="8" stdDeviation="8" flood-color="#7D341F" flood-opacity="0.32"/>
    </filter>
  </defs>
  <circle cx="64" cy="64" r="60" fill="url(#emberHalo)"/>
  <path d="M64 11c15 15 29 28 34 50 6 25-5 47-22 60-5 5-8 10-12 13-4-3-7-8-12-13C35 108 24 86 30 61c5-22 19-35 34-50Z" fill="url(#emberShell)" filter="url(#shadow)"/>
  <path d="M65 29c10 10 17 19 18 34 2 14-6 28-19 37-14-9-21-23-18-37 1-15 9-24 19-34Z" fill="url(#emberCore)"/>
  <path d="M65 22c6 7 10 12 11 20-8-2-14 3-18 9 1-11 2-20 7-29Z" fill="#FFF5DE" opacity=".72"/>
  <circle cx="94" cy="28" r="4" fill="#FFD98E"/>
  <circle cx="103" cy="54" r="3.2" fill="#FFD98E"/>
  <circle cx="36" cy="33" r="3.1" fill="#FFD98E"/>
</svg>
