<svg xmlns="http://www.w3.org/2000/svg" viewBox="0 0 64 64">
  <defs>
    <radialGradient id="halo" cx="50%" cy="54%" r="58%">
      <stop offset="0%" stop-color="#FFB56B" stop-opacity=".5"/>
      <stop offset="100%" stop-color="#FFFDF7" stop-opacity="0"/>
    </radialGradient>
    <linearGradient id="shell" x1="16" y1="6" x2="48" y2="57" gradientUnits="userSpaceOnUse">
      <stop offset="0%" stop-color="#FFD08D"/>
      <stop offset="34%" stop-color="#FF9B4D"/>
      <stop offset="75%" stop-color="#FF603C"/>
      <stop offset="100%" stop-color="#A63C36"/>
    </linearGradient>
    <linearGradient id="core" x1="24" y1="14" x2="39" y2="46" gradientUnits="userSpaceOnUse">
      <stop offset="0%" stop-color="#FFF7D9"/>
      <stop offset="55%" stop-color="#FFD96E"/>
      <stop offset="100%" stop-color="#FF952E"/>
    </linearGradient>
  </defs>
  <circle cx="32" cy="32" r="30" fill="url(#halo)"/>
  <path d="M32 6c7 7 14 13 16 24 3 12-2 23-11 30-2 2-3 5-5 6-2-1-3-4-5-6C18 53 13 42 16 30c2-11 9-17 16-24Z" fill="url(#shell)"/>
  <path d="M32 14c5 5 8 9 9 16 1 7-3 14-9 19-7-5-10-12-9-19 1-7 4-11 9-16Z" fill="url(#core)"/>
  <circle cx="47" cy="16" r="2" fill="#FFD98E"/>
</svg>
